<?xml version="1.0" encoding="UTF-8" standalone="no"?>
<svg width="18px" height="18px" viewBox="0 0 18 18" version="1.1" xmlns="http://www.w3.org/2000/svg" xmlns:xlink="http://www.w3.org/1999/xlink" xmlns:sketch="http://www.bohemiancoding.com/sketch/ns">
    <!-- Generator: Sketch 3.3.1 (12005) - http://www.bohemiancoding.com/sketch -->
    <title>Instagram</title>
    <desc>Created with Sketch.</desc>
    <defs></defs>
    <g id="Page-1" stroke="none" stroke-width="1" fill="none" fill-rule="evenodd" sketch:type="MSPage">
        <g id="About" sketch:type="MSArtboardGroup" transform="translate(-575.000000, -477.000000)" fill="#F0EDD3">
            <g id="Social-medias" sketch:type="MSLayerGroup" transform="translate(435.000000, 477.000000)">
                <path d="M155.057,0.924 L142.943,0.924 C141.803,0.924 140.924,1.803 140.924,2.943 L140.924,15.056 C140.924,16.196 141.803,17.075 142.943,17.075 L155.056,17.075 C156.196,17.075 157.075,16.196 157.075,15.056 L157.075,2.943 C157.076,1.803 156.196,0.924 155.057,0.924 L155.057,0.924 Z M149.012,5.827 C150.803,5.827 152.255,7.234 152.255,8.969 C152.255,10.704 150.803,12.111 149.012,12.111 C147.222,12.111 145.77,10.703 145.77,8.969 C145.77,7.234 147.222,5.827 149.012,5.827 L149.012,5.827 Z M155.057,14.552 C155.057,14.906 154.906,15.057 154.552,15.057 L143.448,15.057 C143.095,15.057 142.943,14.906 142.943,14.552 L142.943,7.486 L144.201,7.76 C144.066,8.199 143.993,8.663 143.993,9.145 C143.993,11.829 146.241,14.008 149.011,14.008 C151.783,14.008 154.03,11.83 154.03,9.145 C154.03,8.663 153.957,8.199 153.822,7.76 L155.056,7.486 L155.056,14.552 L155.057,14.552 Z M155.057,5.467 C155.057,5.746 154.831,5.972 154.552,5.972 L152.533,5.972 C152.254,5.972 152.028,5.746 152.028,5.467 L152.028,3.448 C152.028,3.169 152.254,2.943 152.533,2.943 L154.552,2.943 C154.831,2.943 155.057,3.169 155.057,3.448 L155.057,5.467 L155.057,5.467 Z" id="Instagram" sketch:type="MSShapeGroup"></path>
            </g>
        </g>
    </g>
</svg>