<?xml version="1.0" encoding="UTF-8" standalone="no"?>
<svg width="18px" height="16px" viewBox="0 0 18 16" version="1.1" xmlns="http://www.w3.org/2000/svg" xmlns:xlink="http://www.w3.org/1999/xlink" xmlns:sketch="http://www.bohemiancoding.com/sketch/ns">
    <!-- Generator: Sketch 3.3.1 (12005) - http://www.bohemiancoding.com/sketch -->
    <title>Twitter</title>
    <desc>Created with Sketch.</desc>
    <defs></defs>
    <g id="Page-1" stroke="none" stroke-width="1" fill="none" fill-rule="evenodd" sketch:type="MSPage">
        <g id="About" sketch:type="MSArtboardGroup" transform="translate(-503.000000, -478.000000)" fill="#F0EDD3">
            <g id="Social-medias" sketch:type="MSLayerGroup" transform="translate(435.000000, 477.000000)">
                <path d="M76.7452092,5.58978738 L76.7832092,6.21978738 L76.1472092,6.14278738 C73.8322092,5.84678738 71.8092092,4.84378738 70.0912092,3.15878738 L69.2512092,2.32278738 L69.0362092,2.93978738 C68.5782092,4.31578738 68.8712092,5.76978738 69.8252092,6.74778738 C70.3342092,7.28778738 70.2192092,7.36478738 69.3422092,7.04378738 C69.0372092,6.94078738 68.7692092,6.86378738 68.7442092,6.90278738 C68.6552092,6.99278738 68.9602092,8.16278738 69.2022092,8.62678738 C69.5332092,9.27078738 70.2072092,9.89978738 70.9452092,10.2737874 L71.5692092,10.5697874 L70.8302092,10.5807874 C70.1182092,10.5807874 70.0922092,10.5937874 70.1692092,10.8647874 C70.4232092,11.7007874 71.4282092,12.5887874 72.5482092,12.9747874 L73.3372092,13.2447874 L72.6502092,13.6567874 C71.6322092,14.2497874 70.4362092,14.5837874 69.2402092,14.6077874 C68.6672092,14.6207874 68.1962092,14.6717874 68.1962092,14.7107874 C68.1962092,14.8387874 69.7492092,15.5587874 70.6512092,15.8427874 C73.3612092,16.6787874 76.5802092,16.3177874 78.9972092,14.8907874 C80.7152092,13.8747874 82.4322092,11.8547874 83.2342092,9.89878738 C83.6672092,8.85778738 84.0992092,6.95378738 84.0992092,6.04078738 C84.0992092,5.44878738 84.1372092,5.37178738 84.8492092,4.66478738 C85.2692092,4.25278738 85.6632092,3.80278738 85.7402092,3.67478738 C85.8682092,3.42978738 85.8542092,3.42978738 85.2062092,3.64878738 C84.1252092,4.03478738 83.9722092,3.98378738 84.5072092,3.40478738 C84.9012092,2.99278738 85.3722092,2.24678738 85.3722092,2.02878738 C85.3722092,1.99078738 85.1812092,2.05478738 84.9652092,2.16978738 C84.7362092,2.29878738 84.2272092,2.49178738 83.8452092,2.60678738 L83.1582092,2.82578738 L82.5352092,2.39978738 C82.1912092,2.16878738 81.7092092,1.91078738 81.4542092,1.83378738 C80.8042092,1.65378738 79.8122092,1.67978738 79.2262092,1.88578738 C77.6362092,2.46478738 76.6312092,3.95678738 76.7452092,5.58978738 Z" id="Twitter" sketch:type="MSShapeGroup"></path>
            </g>
        </g>
    </g>
</svg>